<?xml version="1.0" encoding="utf-8"?>
<!-- Generator: Adobe Illustrator 24.0.3, SVG Export Plug-In . SVG Version: 6.00 Build 0)  -->
<svg version="1.1" id="Layer_1" xmlns="http://www.w3.org/2000/svg" xmlns:xlink="http://www.w3.org/1999/xlink" x="0px" y="0px"
	 viewBox="0 0 792 300" style="enable-background:new 0 0 792 300;" xml:space="preserve">
<style type="text/css">
	.st0{fill:#FFFFFF;}
	.st1{fill:none;stroke:#000000;stroke-miterlimit:10;}
	.st2{fill:#6FD3F2;}
	.st3{fill:none;stroke:#F79433;stroke-miterlimit:10;}
</style>
<rect class="st0" width="792" height="300"/>
<g>
	<path class="st1" d="M529.97,52.14c-3.57-0.06-6.75-1.29-9.76-3.08c-0.57-0.34-1.09-0.74-1.65-1.1c-1.64-1.05-2.79-2.49-3.46-4.3
		c-0.14-0.38-0.36-0.48-0.75-0.51c-1.17-0.09-2.35-0.16-3.51-0.37c-3.8-0.68-5.97-3.09-6.81-6.74c-0.23-1.01-0.31-2.11-0.17-3.13
		c0.33-2.49,1.92-3.96,4.53-4.32c1.02-0.14,2.07-0.12,3.1-0.2c1.92-0.15,3.86-0.21,5.76-0.5c2.28-0.34,4.25-1.42,5.93-3.01
		c0.48-0.45,0.97-0.9,1.43-1.37c1.66-1.69,3.68-2.3,6.03-2.19c2.16,0.1,3.75,1.17,5.16,2.62c1.52,1.56,3.21,2.82,5.28,3.56
		c1.56,0.55,3.18,0.64,4.8,0.76c1.6,0.12,3.21,0.14,4.81,0.22c1.1,0.06,2.16,0.29,3.13,0.83c1.87,1.05,2.49,2.78,2.45,4.79
		c-0.04,2.17-0.75,4.13-2.07,5.86c-1.32,1.72-3.14,2.54-5.21,2.88c-1.12,0.18-2.27,0.25-3.41,0.34c-0.36,0.03-0.58,0.12-0.72,0.49
		c-0.63,1.73-1.72,3.08-3.22,4.16c-2.6,1.86-5.39,3.3-8.54,3.95C532.07,51.97,531.01,52.02,529.97,52.14z M546.91,31.59
		c-0.99-0.09-1.82-0.18-2.66-0.23c-3.21-0.2-6.04-1.32-8.43-3.5c-0.24-0.22-0.5-0.41-0.73-0.63c-1.55-1.43-3.35-2.07-5.48-1.97
		c-1.49,0.07-2.81,0.45-3.97,1.37c-0.55,0.43-1.09,0.87-1.61,1.33c-2.35,2.11-5.12,3.18-8.25,3.4c-0.88,0.06-1.76,0.15-2.7,0.24
		c0.12,1.08,0.2,2.09,0.34,3.1c0.42,2.88,0.98,5.73,2.02,8.47c0.52,1.36,1.17,2.65,2.34,3.59c1.68,1.34,3.49,2.48,5.47,3.34
		c3.18,1.39,6.47,1.89,9.88,1.16c3.03-0.65,5.72-2.05,8.23-3.85c1.45-1.04,2.44-2.37,3.08-4.01c0.95-2.42,1.5-4.95,1.92-7.5
		C546.58,34.47,546.72,33.06,546.91,31.59z M513.11,31.42c1.77-0.23,3.5-0.34,5.18-0.69c2.4-0.5,4.41-1.78,6.19-3.45
		c0.86-0.81,1.79-1.58,2.95-1.89c2.6-0.68,5.1-0.57,7.29,1.25c0.88,0.73,1.72,1.51,2.65,2.17c2.09,1.48,4.46,2.19,7.01,2.34
		c0.81,0.05,1.62,0.12,2.46,0.18c0-0.87,0-1.65,0-2.5c-0.65-0.06-1.34-0.14-2.03-0.17c-2.46-0.13-4.78-0.73-6.79-2.17
		c-1.1-0.79-2.05-1.77-3.06-2.67c-1.12-1-2.32-1.82-3.89-1.98c-2.4-0.25-4.5,0.29-6.21,2.07c-0.53,0.55-1.1,1.08-1.67,1.59
		c-1.7,1.53-3.68,2.51-5.94,2.89c-1.23,0.21-2.48,0.29-3.73,0.38c-0.44,0.03-0.61,0.18-0.54,0.61c0.04,0.26,0.09,0.53,0.1,0.79
		C513.12,30.55,513.11,30.91,513.11,31.42z M545.55,41.82c0.8-0.06,1.52-0.1,2.24-0.18c1.43-0.17,2.84-0.45,4.02-1.32
		c2.06-1.51,2.97-3.66,3.08-6.14c0.12-2.63-1.21-4.08-3.83-4.32c-1.03-0.09-2.07-0.06-3.1-0.12c-0.46-0.03-0.56,0.14-0.57,0.57
		c-0.06,3.1-0.53,6.14-1.25,9.15C545.96,40.22,545.77,40.98,545.55,41.82z M514.4,41.84c-0.06-0.28-0.1-0.43-0.13-0.59
		c-0.5-2.57-1.04-5.13-1.49-7.71c-0.19-1.08-0.16-2.2-0.23-3.31c-0.01-0.23,0.03-0.51-0.33-0.48c-1.42,0.09-2.86,0.07-4.25,0.33
		c-1.77,0.33-2.64,1.48-2.81,3.25c-0.4,4.14,2.22,7.55,6.34,8.2C512.43,41.68,513.39,41.74,514.4,41.84z M545.27,42.87
		c0.94-0.08,1.85-0.14,2.75-0.25c1.63-0.2,3.23-0.54,4.54-1.59c2.54-2.03,3.55-4.77,3.3-7.96c-0.14-1.72-1.04-3.01-2.68-3.7
		c-1.84-0.77-3.77-0.57-5.72-0.61c0,0.24,0,0.4,0,0.61c0.29,0.01,0.56,0.03,0.82,0.04c1.03,0.04,2.07,0.03,3.1,0.14
		c2.17,0.24,3.5,1.39,3.79,3.37c0.12,0.83,0.1,1.73-0.07,2.55c-0.66,3.26-2.48,5.67-6,6.29c-1.07,0.19-2.16,0.29-3.24,0.37
		C545.41,42.18,545.24,42.34,545.27,42.87z M512.44,28.76c-1.65,0.01-3.31-0.11-4.93,0.37c-1.78,0.53-2.96,1.66-3.27,3.52
		c-0.14,0.83-0.15,1.72-0.03,2.55c0.34,2.34,1.31,4.37,3.24,5.83c1.33,1.01,2.92,1.39,4.54,1.59c0.89,0.11,1.79,0.16,2.7,0.24
		c0.02-0.55-0.2-0.68-0.64-0.71c-0.94-0.06-1.89-0.15-2.82-0.31c-1.85-0.3-3.49-1.03-4.65-2.58c-1.15-1.53-1.79-3.25-1.81-5.16
		c-0.04-2.72,1.29-4.25,4-4.55c1.08-0.12,2.17-0.11,3.26-0.13C512.5,29.41,512.63,29.24,512.44,28.76z"/>
	<path class="st2" d="M546.91,31.59c-0.19,1.47-0.33,2.88-0.55,4.28c-0.41,2.56-0.97,5.08-1.92,7.5c-0.64,1.64-1.63,2.97-3.08,4.01
		c-2.51,1.8-5.2,3.2-8.23,3.85c-3.42,0.74-6.7,0.23-9.88-1.16c-1.98-0.86-3.79-2-5.47-3.34c-1.17-0.94-1.83-2.22-2.34-3.59
		c-1.04-2.73-1.6-5.59-2.02-8.47c-0.15-1-0.23-2.02-0.34-3.1c0.94-0.08,1.82-0.18,2.7-0.24c3.13-0.21,5.9-1.29,8.25-3.4
		c0.52-0.46,1.06-0.9,1.61-1.33c1.16-0.91,2.49-1.3,3.97-1.37c2.13-0.1,3.93,0.54,5.48,1.97c0.24,0.22,0.5,0.41,0.73,0.63
		c2.39,2.18,5.21,3.3,8.43,3.5C545.08,31.41,545.91,31.5,546.91,31.59z M517.06,33.51c-0.01,0.06-0.01,0.12-0.02,0.18
		c0.28,0.03,0.57,0.09,0.85,0.09c3.08,0.03,6.13-0.21,9.08-1.24c2.01-0.7,4.08-0.8,6.08,0.02c3.01,1.22,6.15,1.3,9.32,1.21
		c0.17,0,0.35-0.06,0.52-0.09c-0.01-0.05-0.01-0.1-0.02-0.15c-0.16-0.01-0.33-0.02-0.49-0.02c-0.71,0-1.43,0.03-2.14,0.02
		c-2.4-0.03-4.76-0.27-7.03-1.19c-2-0.81-4.07-0.81-6.08-0.11c-3.11,1.07-6.3,1.36-9.55,1.29C517.41,33.5,517.23,33.51,517.06,33.51
		z M542.91,37.81c-8.59,3.09-17.13,2.94-25.69-0.04c0.14,0.13,0.29,0.24,0.46,0.31c2.53,1.05,5.17,1.63,7.87,1.94
		c3.37,0.38,6.74,0.35,10.1-0.1c2.27-0.3,4.5-0.8,6.6-1.74C542.48,38.08,542.69,37.94,542.91,37.81z M518.74,42.38
		c3.6,2.84,7.66,4.25,12.27,3.97c3.27-0.2,9.79-2.69,10.48-4.12C533.88,47.1,526.33,47.72,518.74,42.38z"/>
	<path class="st2" d="M513.11,31.42c0-0.51,0.01-0.87,0-1.24c-0.01-0.26-0.06-0.53-0.1-0.79c-0.07-0.43,0.1-0.58,0.54-0.61
		c1.25-0.09,2.5-0.17,3.73-0.38c2.25-0.38,4.23-1.36,5.94-2.89c0.57-0.51,1.14-1.03,1.67-1.59c1.71-1.78,3.81-2.32,6.21-2.07
		c1.57,0.16,2.76,0.97,3.89,1.98c1.01,0.9,1.96,1.89,3.06,2.67c2.01,1.44,4.34,2.04,6.79,2.17c0.69,0.04,1.38,0.12,2.03,0.17
		c0,0.84,0,1.63,0,2.5c-0.84-0.06-1.65-0.14-2.46-0.18c-2.55-0.15-4.92-0.86-7.01-2.34c-0.93-0.66-1.77-1.44-2.65-2.17
		c-2.19-1.82-4.69-1.94-7.29-1.25c-1.16,0.3-2.09,1.08-2.95,1.89c-1.78,1.67-3.8,2.95-6.19,3.45
		C516.61,31.08,514.88,31.2,513.11,31.42z"/>
	<path class="st0" d="M545.55,41.82c0.21-0.85,0.41-1.6,0.59-2.36c0.72-3.01,1.19-6.05,1.25-9.15c0.01-0.43,0.12-0.6,0.57-0.57
		c1.03,0.06,2.07,0.03,3.1,0.12c2.62,0.23,3.95,1.69,3.83,4.32c-0.11,2.48-1.02,4.63-3.08,6.14c-1.18,0.87-2.6,1.15-4.02,1.32
		C547.07,41.73,546.35,41.76,545.55,41.82z"/>
	<path class="st0" d="M514.4,41.84c-1.02-0.11-1.97-0.16-2.91-0.31c-4.12-0.66-6.73-4.06-6.34-8.2c0.17-1.77,1.04-2.91,2.81-3.25
		c1.39-0.26,2.83-0.23,4.25-0.33c0.36-0.02,0.32,0.26,0.33,0.48c0.07,1.1,0.05,2.22,0.23,3.31c0.44,2.58,0.98,5.14,1.49,7.71
		C514.3,41.41,514.34,41.56,514.4,41.84z"/>
	<path class="st0" d="M545.27,42.87c-0.02-0.52,0.15-0.69,0.59-0.72c1.08-0.08,2.17-0.19,3.24-0.37c3.52-0.62,5.34-3.03,6-6.29
		c0.17-0.82,0.19-1.72,0.07-2.55c-0.29-1.98-1.63-3.14-3.79-3.37c-1.03-0.11-2.07-0.1-3.1-0.14c-0.26-0.01-0.53-0.03-0.82-0.04
		c0-0.21,0-0.38,0-0.61c1.94,0.03,3.88-0.16,5.72,0.61c1.64,0.69,2.55,1.98,2.68,3.7c0.25,3.19-0.75,5.92-3.3,7.96
		c-1.31,1.05-2.91,1.39-4.54,1.59C547.12,42.73,546.21,42.78,545.27,42.87z"/>
	<path class="st0" d="M512.44,28.76c0.19,0.47,0.06,0.65-0.42,0.65c-1.09,0.02-2.18,0.01-3.26,0.13c-2.71,0.3-4.04,1.83-4,4.55
		c0.03,1.91,0.67,3.64,1.81,5.16c1.16,1.55,2.8,2.28,4.65,2.58c0.93,0.15,1.88,0.25,2.82,0.31c0.44,0.03,0.66,0.16,0.64,0.71
		c-0.9-0.08-1.8-0.13-2.7-0.24c-1.63-0.2-3.21-0.57-4.54-1.59c-1.93-1.46-2.9-3.5-3.24-5.83c-0.12-0.83-0.11-1.72,0.03-2.55
		c0.31-1.86,1.49-2.99,3.27-3.52C509.13,28.65,510.79,28.78,512.44,28.76z"/>
	<path d="M517.06,33.51c0.18,0,0.35,0,0.53,0c3.25,0.07,6.44-0.21,9.55-1.29c2.01-0.7,4.09-0.7,6.08,0.11
		c2.26,0.92,4.62,1.16,7.03,1.19c0.71,0.01,1.43-0.01,2.14-0.02c0.16,0,0.33,0.01,0.49,0.02c0.01,0.05,0.01,0.1,0.02,0.15
		c-0.17,0.03-0.35,0.09-0.52,0.09c-3.17,0.09-6.31,0.01-9.32-1.21c-2.01-0.81-4.07-0.72-6.08-0.02c-2.95,1.03-5.99,1.27-9.08,1.24
		c-0.28,0-0.57-0.06-0.85-0.09C517.05,33.63,517.05,33.57,517.06,33.51z"/>
	<path d="M542.91,37.81c-0.22,0.13-0.43,0.27-0.65,0.37c-2.11,0.94-4.33,1.44-6.6,1.74c-3.36,0.45-6.73,0.48-10.1,0.1
		c-2.71-0.31-5.35-0.89-7.87-1.94c-0.17-0.07-0.32-0.18-0.46-0.31C525.78,40.75,534.32,40.9,542.91,37.81z"/>
	<path d="M518.74,42.38c7.58,5.34,15.13,4.72,22.75-0.15c-0.69,1.44-7.21,3.93-10.48,4.12C526.41,46.63,522.35,45.22,518.74,42.38z"
		/>
</g>
<g>
	<path d="M457.28,209.04c-0.36-0.07-0.73-0.13-1.09-0.22c-2.62-0.64-4.19-2.64-4.19-5.33c0-4.59,0-9.18,0-13.78
		c0-9.44,0.05-18.88-0.03-28.33c-0.03-3.85-0.34-7.71-0.55-11.56c-0.23-4.11-0.49-8.22-0.73-12.33c-0.28-4.75-0.56-9.51-0.87-14.26
		c-0.02-0.27-0.2-0.64-0.42-0.76c-9.76-5.35-15.79-13.51-18.3-24.31c-0.48-2.07-0.85-4.18-1.19-6.28c-0.23-1.4,0.38-2.53,1.48-3.38
		c2.41-1.87,6.7-1.84,9.09,0.05c1.12,0.89,1.78,2.05,1.92,3.47c0.45,4.54,2,8.66,4.71,12.35c10.39,14.15,32.09,13.03,40.74-2.1
		c2.02-3.54,3.07-7.38,3.45-11.42c0.07-0.75,0.12-1.52,0.35-2.23c0.78-2.4,2.6-3.5,5-3.74c2.82-0.29,6.61,1.22,7.08,5.37
		c0.12,1.04,0.01,2.11-0.1,3.16c-1.1,10.09-5.51,18.43-13.28,24.96c-2.05,1.73-4.28,3.19-6.68,4.39c-0.45,0.22-0.62,0.5-0.64,0.98
		c-0.17,3.77-0.37,7.53-0.56,11.3c-0.29,5.68-0.58,11.37-0.86,17.05c-0.04,0.8-0.07,1.59-0.07,2.39c0,16.38,0.01,32.77,0.01,49.15
		c0,2.66-1.55,4.62-4.14,5.2c-0.1,0.02-0.21,0.05-0.32,0.07c-1.06,0.03-2.13,0.01-3.17,0.04c-0.17,0-0.34,0-0.51,0
		c-3.23-0.55-4.88-2.52-4.88-5.85c0-13.54,0-27.08,0-40.62c0-0.25-0.02-0.5-0.03-0.73H465c0,0.34,0,0.62,0,0.89
		c0,13.67,0.01,27.34,0.01,41c0,2.3-1.18,4.12-3.24,4.89c-0.59,0.22-1.21,0.35-1.88,0.52"/>
	<path d="M466.93,111.02c-8.61-0.01-15.57-7.04-15.55-15.7c0.02-8.58,7.05-15.55,15.66-15.53c8.58,0.02,15.54,7.06,15.51,15.67
		C482.51,104.08,475.53,111.04,466.93,111.02z"/>
</g>
<polygon class="st3" points="496.38,14.86 496.38,73.3 526.36,73.3 518.44,88.42 545.23,73.91 671.71,73.91 671.71,14.86 "/>
<g>
	<path d="M582.98,41.48c-0.14,1.82-0.29,3.59-0.43,5.38c-0.65,0-1.28,0-1.93,0c-0.14-1.78-0.27-3.56-0.41-5.37
		c-0.16,0-0.31,0.01-0.46,0c-0.36-0.02-0.58-0.25-0.54-0.6c0.11-1.01,0.24-2.03,0.36-3.04c0.03-0.3,0.06-0.59,0.08-0.89
		c0.03-0.36,0.17-0.49,0.53-0.52c0.73-0.05,0.73-0.05,0.95,0.64c0.14,0.44,0.28,0.88,0.45,1.4c0.12-0.34,0.22-0.61,0.31-0.89
		c0.11-0.32,0.2-0.64,0.32-0.96c0.03-0.09,0.16-0.17,0.26-0.19c0.16-0.03,0.33-0.01,0.49,0c0.43,0.01,0.52,0.08,0.58,0.52
		c0.08,0.58,0.13,1.17,0.2,1.75c0.07,0.65,0.15,1.3,0.22,1.95c0.01,0.13,0.02,0.27,0,0.4c-0.04,0.28-0.2,0.42-0.49,0.42
		C583.32,41.48,583.17,41.48,582.98,41.48z"/>
	<path d="M592.63,38.38c0.19-0.56,0.38-1.12,0.56-1.68c0.06-0.2,0.16-0.27,0.37-0.27c0.9,0.01,0.94-0.05,1.03,0.88
		c0.11,1.13,0.25,2.26,0.38,3.39c0.01,0.11,0.01,0.23,0,0.35c-0.03,0.28-0.19,0.43-0.48,0.44c-0.15,0.01-0.31,0-0.5,0
		c-0.14,1.79-0.28,3.57-0.43,5.37c-0.64,0-1.26,0-1.92,0c-0.14-1.78-0.28-3.56-0.42-5.37c-0.15,0-0.29,0-0.42,0
		c-0.42-0.01-0.61-0.22-0.57-0.65c0.06-0.63,0.14-1.26,0.21-1.89c0.07-0.62,0.15-1.24,0.21-1.86c0.05-0.5,0.18-0.64,0.69-0.64
		c0.58-0.01,0.58-0.01,0.77,0.55c0.16,0.47,0.32,0.94,0.47,1.4C592.59,38.38,592.61,38.38,592.63,38.38z"/>
	<path d="M586.13,46.87c-0.14-1.8-0.28-3.57-0.42-5.38c-0.14,0-0.26,0-0.38,0c-0.44,0-0.65-0.21-0.61-0.64
		c0.06-0.64,0.14-1.28,0.22-1.92c0.07-0.62,0.15-1.24,0.21-1.86c0.05-0.49,0.17-0.62,0.67-0.62c0.59-0.01,0.59-0.01,0.79,0.56
		c0.16,0.46,0.31,0.93,0.49,1.47c0.12-0.33,0.21-0.58,0.3-0.84c0.11-0.33,0.2-0.66,0.33-0.98c0.04-0.09,0.16-0.17,0.26-0.19
		c0.13-0.03,0.27-0.01,0.4-0.01c0.53,0,0.62,0.1,0.68,0.64c0.13,1.19,0.26,2.37,0.39,3.56c0.01,0.11,0.02,0.23,0.01,0.35
		c-0.02,0.35-0.18,0.5-0.53,0.51c-0.14,0-0.29,0-0.46,0c-0.06,0.7-0.12,1.38-0.17,2.06c-0.08,1.04-0.16,2.07-0.25,3.11
		c-0.01,0.08-0.1,0.21-0.16,0.21C587.33,46.87,586.74,46.87,586.13,46.87z"/>
	<path d="M610.2,46.85c-0.65,0-1.27,0-1.92,0c-0.14-1.79-0.28-3.56-0.42-5.37c-0.16,0-0.3,0-0.44,0c-0.39-0.01-0.61-0.25-0.56-0.64
		c0.11-0.99,0.24-1.99,0.35-2.98c0.04-0.3,0.07-0.61,0.1-0.92c0.03-0.34,0.19-0.5,0.54-0.51c0.71-0.03,0.71-0.03,0.93,0.63
		c0.14,0.43,0.29,0.86,0.43,1.29c0,0.01,0.03,0.02,0.06,0.05c0.19-0.58,0.4-1.15,0.57-1.72c0.06-0.19,0.15-0.27,0.34-0.25
		c0.09,0.01,0.17,0,0.26,0c0.65,0,0.71,0.07,0.78,0.75c0.12,1.18,0.25,2.36,0.39,3.53c0.07,0.55-0.11,0.77-0.66,0.77
		c-0.1,0-0.19,0-0.32,0C610.48,43.28,610.34,45.06,610.2,46.85z"/>
	<path d="M597.98,46.81c-0.23,0.02-0.45,0.05-0.71,0.08c-0.14-1.82-0.28-3.6-0.42-5.41c-0.15,0-0.28,0-0.4,0
		c-0.44-0.01-0.65-0.24-0.6-0.69c0.07-0.66,0.16-1.32,0.23-1.98c0.07-0.62,0.15-1.24,0.21-1.86c0.04-0.37,0.17-0.5,0.53-0.52
		c0.72-0.04,0.72-0.04,0.95,0.65c0.14,0.44,0.29,0.87,0.45,1.39c0.11-0.31,0.19-0.54,0.27-0.78c0.12-0.35,0.24-0.69,0.34-1.04
		c0.07-0.25,0.19-0.3,0.38-0.13c0.31,0.3,0.63,0.61,0.94,0.91c0.05,0.27,0.13,0.54,0.16,0.81c0.1,0.85,0.19,1.7,0.28,2.55
		c0.05,0.48-0.14,0.71-0.63,0.68c-0.31-0.02-0.38,0.09-0.4,0.38c-0.07,1.15-0.18,2.3-0.27,3.45c-0.01,0.08-0.05,0.16-0.07,0.24
		C598.82,45.97,598.4,46.39,597.98,46.81z"/>
	<path d="M594.52,43.89c-0.02-0.23-0.04-0.43-0.05-0.63c-0.03-0.48-0.06-0.96-0.1-1.45c0.05-0.01,0.09-0.02,0.12-0.03
		c0.59-0.06,0.85-0.36,0.8-0.94c-0.08-0.88-0.19-1.76-0.28-2.64c-0.05-0.43-0.1-0.86-0.14-1.29c-0.06-0.55-0.32-0.79-0.86-0.8
		c-0.22,0-0.44,0-0.68-0.03c0.39-0.29,0.65-0.65,0.72-1.13c0.07-0.48-0.1-0.89-0.44-1.23c0.13-0.24,0.35-0.26,0.58-0.26
		c0.62,0,0.63,0,0.83,0.58c0.16,0.46,0.3,0.92,0.48,1.47c0.14-0.4,0.25-0.72,0.36-1.04c0.09-0.27,0.18-0.55,0.27-0.82
		c0.02-0.06,0.05-0.14,0.1-0.17c0.14-0.09,0.93,0.01,1.1,0.15c-0.35,0.35-0.58,0.76-0.52,1.28c0.06,0.51,0.32,0.89,0.85,1.2
		c-0.33,0-0.57,0-0.82,0c-0.48,0.01-0.76,0.25-0.82,0.72c-0.16,1.27-0.3,2.54-0.45,3.82c-0.01,0.09-0.01,0.17-0.01,0.26
		c-0.01,0.51,0.26,0.81,0.76,0.87c0.08,0.01,0.15,0.01,0.3,0.02c-0.05,0.7-0.09,1.38-0.14,2.09
		C595.8,43.89,595.17,43.89,594.52,43.89z"/>
	<path d="M588.74,41.82c0.95-0.14,1.12-0.34,1.03-1.24c-0.12-1.25-0.27-2.49-0.41-3.73c-0.06-0.5-0.35-0.74-0.86-0.74
		c-0.24,0-0.48,0-0.8,0c0.48-0.29,0.76-0.66,0.83-1.16c0.07-0.52-0.13-0.94-0.58-1.37c0.24-0.05,0.42-0.11,0.59-0.12
		c0.6-0.01,0.61-0.01,0.8,0.56c0.16,0.46,0.31,0.93,0.49,1.47c0.2-0.59,0.37-1.1,0.54-1.61c0.15-0.43,0.15-0.44,0.61-0.43
		c0.22,0,0.44,0.04,0.68,0.1c-0.35,0.4-0.59,0.8-0.54,1.32c0.05,0.52,0.32,0.89,0.75,1.22c-0.23,0-0.46,0-0.69,0
		c-0.51,0-0.81,0.3-0.87,0.81c-0.13,1.24-0.27,2.49-0.42,3.73c-0.09,0.74,0.16,1.07,0.89,1.14c0.03,0,0.05,0.01,0.14,0.04
		c-0.04,0.68-0.09,1.36-0.13,2.07c-0.65,0-1.28,0-1.94,0C588.83,43.21,588.79,42.52,588.74,41.82z"/>
	<path d="M586.34,36.11c-0.23,0-0.46,0-0.69,0c-0.44,0.01-0.75,0.29-0.8,0.72c-0.16,1.32-0.31,2.64-0.46,3.96
		c-0.07,0.58,0.19,0.87,0.93,1.04c-0.05,0.68-0.1,1.37-0.15,2.07c-0.64,0-1.27,0-1.93,0c0-0.7,0-1.38,0-2.06
		c0.1-0.03,0.13-0.05,0.17-0.05c0.7,0.02,0.93-0.46,0.88-0.98c-0.13-1.19-0.25-2.37-0.38-3.56c-0.02-0.18-0.03-0.37-0.07-0.54
		c-0.08-0.37-0.34-0.58-0.72-0.6c-0.28-0.01-0.56,0-0.91,0c0.51-0.3,0.79-0.69,0.84-1.22c0.05-0.53-0.19-0.95-0.61-1.32
		c0.36-0.18,0.7-0.09,1.03-0.09c0.05,0,0.11,0.12,0.13,0.2c0.2,0.58,0.39,1.16,0.65,1.76c0.03-0.09,0.06-0.18,0.09-0.28
		c0.16-0.5,0.33-1.01,0.49-1.51c0.02-0.05,0.04-0.12,0.08-0.15c0.16-0.14,1.03,0,1.2,0.21c-0.34,0.34-0.51,0.75-0.45,1.24
		C585.71,35.43,585.98,35.78,586.34,36.11z"/>
	<path d="M601.63,38.89c0.02-0.34,0.05-0.69,0.08-1.03c0.03-0.32,0.07-0.63,0.1-0.95c0.04-0.32,0.18-0.46,0.5-0.49
		c0.02,0,0.04,0,0.06,0c0.69-0.03,0.69-0.03,0.91,0.63c0.14,0.41,0.27,0.82,0.41,1.23c0.01,0.03,0.02,0.05,0.06,0.14
		c0.1-0.28,0.18-0.51,0.26-0.75c0.12-0.36,0.23-0.72,0.36-1.06c0.03-0.08,0.15-0.16,0.24-0.17c0.21-0.03,0.42-0.02,0.63-0.01
		c0.23,0.01,0.39,0.12,0.42,0.36c0.08,0.66,0.16,1.32,0.23,1.98c0.01,0.06-0.03,0.13-0.05,0.19c-0.12,0.13-0.25,0.27-0.37,0.4
		c-0.55,0.56-1.1,1.12-1.65,1.68c-0.02,0-0.04,0-0.06,0C603.05,40.32,602.34,39.6,601.63,38.89z"/>
	<path d="M603.76,41.03c0.02,0,0.04,0,0.06,0c0.38,0.41,0.77,0.82,1.15,1.23c0.02,0.08,0.07,0.16,0.06,0.24
		c-0.1,1.4-0.21,2.8-0.32,4.2c0,0.05-0.02,0.09-0.04,0.16c-0.62,0-1.24,0-1.9,0c-0.03-0.35-0.07-0.69-0.09-1.03
		c-0.08-1.04-0.16-2.09-0.24-3.13c-0.01-0.13,0.03-0.26,0.05-0.39C602.92,41.87,603.34,41.45,603.76,41.03z"/>
	<path d="M606.27,38.53c-0.04-0.11-0.11-0.21-0.12-0.32c-0.07-0.49-0.1-0.98-0.18-1.46c-0.06-0.42-0.33-0.63-0.76-0.64
		c-0.26,0-0.52,0-0.85,0c0.46-0.31,0.75-0.67,0.81-1.17c0.07-0.52-0.16-0.93-0.57-1.36c0.24-0.05,0.4-0.1,0.56-0.1
		c0.64-0.01,0.64-0.01,0.84,0.58c0.14,0.4,0.27,0.8,0.4,1.2c0.02,0.06,0.05,0.11,0.1,0.2c0.21-0.62,0.41-1.2,0.6-1.79
		c0.05-0.16,0.12-0.23,0.28-0.21c0.31,0.03,0.64-0.08,0.96,0.14c-0.38,0.36-0.62,0.77-0.56,1.3c0.06,0.52,0.33,0.89,0.84,1.2
		c-0.32,0-0.57,0-0.81,0c-0.46,0.01-0.75,0.27-0.82,0.73c-0.05,0.38-0.11,0.76-0.17,1.14C606.64,38.16,606.46,38.35,606.27,38.53z"
		/>
	<path d="M600.71,37.97c-0.05-0.23-0.11-0.46-0.16-0.69c-0.02-0.08-0.01-0.17-0.02-0.26c-0.08-0.72-0.3-0.91-1.02-0.91
		c-0.19,0-0.38,0-0.64,0c0.49-0.32,0.79-0.7,0.83-1.24c0.04-0.53-0.18-0.95-0.62-1.3c0.38-0.18,0.72-0.1,1.06-0.09
		c0.04,0,0.08,0.12,0.1,0.19c0.2,0.59,0.4,1.18,0.62,1.86c0.09-0.28,0.15-0.48,0.22-0.69c0.13-0.39,0.25-0.79,0.4-1.17
		c0.03-0.09,0.16-0.18,0.25-0.19c0.25-0.02,0.5-0.02,0.75,0.01c0.24,0.03,0.29,0.17,0.16,0.35c-0.57,0.77-0.45,1.57,0.32,2.16
		c0.01,0.01,0.02,0.03,0.07,0.11c-0.24,0-0.44,0-0.64,0c-0.55,0-0.83,0.24-0.9,0.8c-0.06,0.47-0.1,0.94-0.16,1.4
		c-0.01,0.07-0.04,0.14-0.06,0.21C601.08,38.33,600.89,38.15,600.71,37.97z"/>
	<path d="M606.27,38.53c0.18-0.19,0.37-0.37,0.55-0.56c-0.02,0.27-0.03,0.54-0.06,0.81c-0.06,0.57-0.12,1.15-0.2,1.72
		c-0.12,0.93,0.05,1.16,1.02,1.31c-0.05,0.68-0.09,1.37-0.14,2.07c-0.65,0-1.28,0-1.94,0c-0.04-0.62-0.08-1.23-0.12-1.84
		c-0.01-0.19,0.07-0.26,0.27-0.27c0.51-0.02,0.79-0.3,0.76-0.82c-0.04-0.68-0.13-1.36-0.2-2.04
		C606.22,38.79,606.26,38.66,606.27,38.53z"/>
	<path d="M600.71,37.97c0.19,0.18,0.37,0.37,0.56,0.55c-0.04,0.47-0.08,0.94-0.13,1.4c-0.02,0.23-0.06,0.46-0.09,0.69
		c-0.09,0.76,0.12,1.05,0.91,1.2c-0.04,0.68-0.09,1.37-0.14,2.07c-0.64,0-1.27,0-1.92,0c-0.15-0.69-0.02-1.38,0.02-2.06
		c0.04-0.02,0.06-0.03,0.08-0.03c0.88,0.01,1-0.58,0.92-1.19c-0.09-0.77-0.18-1.55-0.26-2.32
		C600.65,38.18,600.69,38.07,600.71,37.97z"/>
	<path d="M592.59,35.9c-0.64,0-1.14-0.5-1.14-1.13c0-0.63,0.51-1.13,1.14-1.14c0.62,0,1.13,0.51,1.13,1.14
		C593.73,35.41,593.24,35.9,592.59,35.9z"/>
	<path d="M606.5,30.67c0.63,0,1.14,0.52,1.13,1.15c-0.01,0.63-0.52,1.13-1.15,1.13c-0.63-0.01-1.14-0.53-1.13-1.15
		C605.36,31.16,605.87,30.67,606.5,30.67z"/>
	<path d="M584.22,30.67c0.63,0,1.11,0.5,1.11,1.15c0,0.64-0.5,1.13-1.14,1.12c-0.62,0-1.13-0.52-1.12-1.15
		C583.07,31.17,583.58,30.67,584.22,30.67z"/>
	<path d="M610.36,34.78c0,0.65-0.49,1.12-1.14,1.12c-0.64,0-1.12-0.49-1.12-1.14c0-0.63,0.51-1.13,1.14-1.13
		C609.87,33.64,610.37,34.14,610.36,34.78z"/>
	<path d="M603.74,35.9c-0.65,0-1.13-0.48-1.13-1.13c0-0.64,0.5-1.14,1.13-1.14c0.63,0,1.13,0.5,1.13,1.14
		C604.86,35.42,604.38,35.9,603.74,35.9z"/>
	<path d="M601.97,31.8c0,0.65-0.48,1.15-1.12,1.15c-0.63,0-1.14-0.5-1.14-1.13c0-0.64,0.48-1.14,1.12-1.14
		C601.48,30.67,601.97,31.16,601.97,31.8z"/>
	<path d="M582.72,34.77c0,0.65-0.49,1.13-1.13,1.13c-0.65-0.01-1.13-0.49-1.13-1.13c0-0.63,0.51-1.13,1.13-1.13
		C582.23,33.63,582.72,34.13,582.72,34.77z"/>
	<path d="M599.37,34.77c0,0.65-0.48,1.13-1.13,1.13c-0.65,0-1.13-0.47-1.13-1.13c0-0.64,0.49-1.14,1.12-1.14
		C598.86,33.63,599.36,34.13,599.37,34.77z"/>
	<path d="M587.07,35.9c-0.62,0-1.11-0.5-1.11-1.12c0-0.64,0.51-1.15,1.16-1.14c0.62,0.01,1.16,0.53,1.1,1.16
		C588.16,35.43,587.85,35.88,587.07,35.9z"/>
	<path d="M588.72,31.79c0.01-0.64,0.5-1.13,1.14-1.12c0.65,0.01,1.12,0.52,1.11,1.22c-0.01,0.57-0.53,1.05-1.13,1.05
		C589.21,32.94,588.71,32.44,588.72,31.79z"/>
	<path d="M595.47,30.69c0.65,0,1.15,0.48,1.15,1.11c0.01,0.61-0.53,1.16-1.15,1.14c-0.74-0.03-1.09-0.48-1.11-1.15
		C594.35,31.18,594.87,30.69,595.47,30.69z"/>
	<path d="M603.76,41.03c-0.42,0.42-0.84,0.85-1.26,1.27c-0.04-0.19-0.1-0.37-0.11-0.56c-0.01-0.19-0.07-0.26-0.27-0.26
		c-0.67,0-0.82-0.19-0.73-0.86c0.07-0.52,0.12-1.05,0.19-1.57c0.01-0.05,0.04-0.1,0.06-0.15C602.34,39.6,603.05,40.32,603.76,41.03z
		"/>
	<path d="M604.97,42.26c-0.38-0.41-0.77-0.82-1.15-1.23c0.55-0.56,1.1-1.12,1.65-1.68c0.13-0.13,0.25-0.26,0.37-0.4
		c0.04,0.19,0.1,0.38,0.12,0.57c0.06,0.42,0.11,0.84,0.15,1.26c0.05,0.49-0.14,0.7-0.63,0.7c-0.1,0-0.21,0-0.36,0
		c-0.02,0.18-0.02,0.35-0.05,0.51C605.07,42.08,605.01,42.17,604.97,42.26z"/>
	<path d="M600.17,37.43c-0.31-0.3-0.63-0.61-0.94-0.91c0.19-0.16,0.75-0.14,0.82,0.06C600.14,36.85,600.14,37.15,600.17,37.43z"/>
</g>
<circle class="st1" cx="596.36" cy="38.42" r="20.18"/>
<line class="st1" x1="581.59" y1="24.68" x2="610.36" y2="52.94"/>
<line class="st1" x1="611.65" y1="25.25" x2="583.06" y2="53.58"/>
</svg>
